<?xml version="1.0" encoding="UTF-8" standalone="no"?>
<svg
   viewBox="0 0 1696 935"
   version="1.1"
   id="svg110"
   sodipodi:docname="salted-fish.svg"
   inkscape:version="1.2.1 (9c6d41e410, 2022-07-14, custom)"
   xmlns:inkscape="http://www.inkscape.org/namespaces/inkscape"
   xmlns:sodipodi="http://sodipodi.sourceforge.net/DTD/sodipodi-0.dtd"
   xmlns="http://www.w3.org/2000/svg"
   xmlns:svg="http://www.w3.org/2000/svg">
  <defs
     id="defs114" />
  <sodipodi:namedview
     id="namedview112"
     pagecolor="#505050"
     bordercolor="#ffffff"
     borderopacity="1"
     inkscape:showpageshadow="0"
     inkscape:pageopacity="0"
     inkscape:pagecheckerboard="1"
     inkscape:deskcolor="#505050"
     showgrid="false"
     inkscape:zoom="0.50481283"
     inkscape:cx="806.23941"
     inkscape:cy="420.94809"
     inkscape:window-width="1884"
     inkscape:window-height="1008"
     inkscape:window-x="1938"
     inkscape:window-y="54"
     inkscape:window-maximized="1"
     inkscape:current-layer="图层_1" />
  <style
     id="style2">.st1,.st4,.st6{fill:#999;stroke:#000;stroke-width:8;stroke-miterlimit:10}.st4,.st6{fill:#4d4d4d}.st6{fill:none}.st21{fill:#fff}</style>
  <g
     id="图层_1">
    <linearGradient
       id="SVGID_3_"
       x1="628.5349"
       x2="920.6312"
       y1="758.2481"
       y2="758.2481"
       gradientUnits="userSpaceOnUse"
       gradientTransform="translate(-87.75,-0.2)">
      <stop
         offset="0"
         stop-color="#53e3b4"
         id="stop44" />
      <stop
         offset="1"
         stop-color="#4fccc5"
         stop-opacity=".6"
         id="stop46" />
    </linearGradient>
    <linearGradient
       id="SVGID_4_"
       x1="870.3969"
       x2="1082.5265"
       y1="760.3624"
       y2="760.3624"
       gradientUnits="userSpaceOnUse"
       gradientTransform="translate(-87.75,-0.2)">
      <stop
         offset="0"
         stop-color="#53e3b4"
         id="stop51" />
      <stop
         offset="1"
         stop-color="#4fccc5"
         stop-opacity=".6"
         id="stop53" />
    </linearGradient>
    <path
       fill="#3f62c7"
       d="m 540.75,120.6 h 614.5 v 693.8 h -614.5 z"
       id="path42"
       style="opacity:0.18918919" />
    <path
       fill="url(#SVGID_3_)"
       d="m 540.75,739.8 c 0,0 254.4,-46.4 284.7,-36.8 30.3,9.6 -42.9,111.4 -42.9,111.4 h -241.8 z"
       id="path49"
       style="fill:url(#SVGID_3_)" />
    <path
       fill="url(#SVGID_4_)"
       d="m 994.75,814.4 c 0,0 -149.2,-78.4 -164.7,-108.5 0,0 18.9,14.3 -47.5,108.5 z"
       id="path56"
       style="fill:url(#SVGID_4_)" />
    <g
       opacity="0.85"
       id="g72"
       transform="translate(-87.75,-0.2)">
      <linearGradient
         id="SVGID_5_"
         x1="976.59009"
         x2="1115.5823"
         y1="760.3446"
         y2="760.3446"
         gradientUnits="userSpaceOnUse">
        <stop
           offset="0"
           stop-color="#53e3b4"
           id="stop58" />
        <stop
           offset="1"
           stop-color="#4fccc5"
           stop-opacity=".6"
           id="stop60" />
      </linearGradient>
      <path
         fill="url(#SVGID_5_)"
         d="m 976.6,753.6 c 0,0 93.9,-29.7 130.5,-29.7 36.6,0 -57.2,73 -57.2,73 0,0 -62.6,-35.3 -73.3,-43.3 z"
         id="path63"
         style="fill:url(#SVGID_5_)" />
      <linearGradient
         id="SVGID_6_"
         x1="1049.9352"
         x2="1242.8149"
         y1="771.69098"
         y2="771.69098"
         gradientUnits="userSpaceOnUse">
        <stop
           offset="0"
           stop-color="#53e3b4"
           id="stop65" />
        <stop
           offset="1"
           stop-color="#4fccc5"
           stop-opacity=".6"
           id="stop67" />
      </linearGradient>
      <path
         fill="url(#SVGID_6_)"
         d="m 1242.8,814.6 c 0,0 -114.8,-62.4 -127.2,-85.9 0,0 7,9.5 -65.6,68 l 32.6,17.9 z"
         id="path70"
         style="fill:url(#SVGID_6_)" />
    </g>
    <g
       id="g107"
       transform="translate(-87.75,-0.2)">
      <linearGradient
         id="SVGID_7_"
         x1="725.96362"
         x2="852.98688"
         y1="447.9324"
         y2="447.9324"
         gradientUnits="userSpaceOnUse">
        <stop
           offset="0"
           stop-color="#53e3b4"
           id="stop78" />
        <stop
           offset="1"
           stop-color="#4fccc5"
           stop-opacity=".6"
           id="stop80" />
      </linearGradient>
      <path
         fill="url(#SVGID_7_)"
         d="M 810.8,596.9 V 509.6 H 726 v -12.9 l 81.2,-197.8 h 21.1 V 493.5 H 853 l -2.3,16.1 h -22.4 v 87.3 z m 0,-194.2 c 0,-26.7 0.5,-53.3 1.4,-79.5 h -0.5 c -20,54.4 -45.4,117.3 -66.8,170.4 h 65.9 z"
         id="path83"
         style="fill:url(#SVGID_7_)" />
      <linearGradient
         id="SVGID_8_"
         x1="880.76459"
         x2="991.43433"
         y1="447.9324"
         y2="447.9324"
         gradientUnits="userSpaceOnUse">
        <stop
           offset="0"
           stop-color="#53e3b4"
           id="stop85" />
        <stop
           offset="1"
           stop-color="#4fccc5"
           stop-opacity=".6"
           id="stop87" />
      </linearGradient>
      <path
         fill="url(#SVGID_8_)"
         d="m 991.4,367.4 v 162.3 c 0,56.6 -25.4,70.9 -55.8,70.9 -27.6,0 -54.8,-13.4 -54.8,-70 V 367.9 c 0,-60.8 30.5,-72.6 56.3,-72.6 24.7,0 54.3,11.8 54.3,72.1 z m -92.6,0.4 v 161.6 c 0,37.3 11.8,53.7 37.7,53.7 21.9,0 36.8,-10.1 36.8,-54.6 V 368.2 c 0,-43.5 -16.7,-55.4 -37.3,-55.4 -20.9,0 -37.2,10.1 -37.2,55 z"
         id="path90"
         style="fill:url(#SVGID_8_)" />
      <linearGradient
         id="SVGID_9_"
         x1="1018.3954"
         x2="1145.4187"
         y1="447.9324"
         y2="447.9324"
         gradientUnits="userSpaceOnUse">
        <stop
           offset="0"
           stop-color="#53e3b4"
           id="stop92" />
        <stop
           offset="1"
           stop-color="#4fccc5"
           stop-opacity=".6"
           id="stop94" />
      </linearGradient>
      <path
         fill="url(#SVGID_9_)"
         d="m 1103.2,596.9 v -87.3 h -84.8 v -12.9 l 81.2,-197.8 h 21.1 v 194.6 h 24.7 l -2.3,16.1 h -22.4 v 87.3 z m 0,-194.2 c 0,-26.7 0.5,-53.3 1.4,-79.5 h -0.5 c -20,54.4 -45.4,117.3 -66.8,170.4 h 65.9 z"
         id="path97"
         style="fill:url(#SVGID_9_)" />
      <g
         id="g105">
        <path
           d="m 828,537.6 c -5.8,0 -8.9,4.8 -10.6,13.1 l -9.4,44.5 c -2,9.2 -0.1,14.1 6.6,14.1 5.9,0 8.8,-4.6 10.8,-13.8 l 9.4,-44.1 c 1.9,-9 -0.2,-13.8 -6.8,-13.8 z m 130.5,0 c -5.8,0 -8.9,4.8 -10.6,13.1 l -9.4,44.5 c -2,9.2 -0.1,14.1 6.6,14.1 5.9,0 8.8,-4.6 10.8,-13.8 l 9.4,-44.1 c 1.9,-9 -0.3,-13.8 -6.8,-13.8 z"
           class="st21"
           id="path99" />
        <path
           d="m 726.2,506.7 v 133.4 h 419.4 V 506.7 Z m 52.6,109.2 h -10.4 c -0.8,-19 -2.9,-63.1 -2.9,-69.3 h -0.1 c -1.7,10.8 -4.1,23.8 -7.4,39.1 L 751.6,616 H 743 l 18,-84.8 h 10.7 c 0.9,21.9 2.9,63.1 2.8,67.7 h 0.2 c 2.1,-11.7 4.3,-24 7.2,-37.8 l 6.3,-29.9 h 8.5 z m 64.7,-63.2 -9,42.1 c -3,13.9 -7.4,22.2 -20.8,22.2 -13.8,0 -17.1,-9.5 -14.4,-22.8 l 9.1,-43.4 c 2.8,-13.2 8.8,-20.9 20.5,-20.9 12.8,0 17.4,9.5 14.6,22.8 z m 16.3,63.2 H 851 l 16.3,-76.7 h -13.2 l 1.8,-8.1 H 891 l -1.8,8.1 H 876.1 Z M 921,575.3 h -18.9 l -8.6,40.6 h -9 l 18,-84.8 h 28.9 l -1.8,8.1 h -20 l -5.8,28 h 18.9 z m 52.9,-22.6 -9,42.1 c -3,13.9 -7.4,22.2 -20.8,22.2 -13.8,0 -17.1,-9.5 -14.4,-22.8 l 9.1,-43.4 c 2.8,-13.2 8.8,-20.9 20.5,-20.9 12.9,0 17.5,9.5 14.6,22.8 z m 20.5,64.2 c -12.1,0 -17.2,-6.9 -14.3,-20.5 L 994,531.1 h 8.8 l -14,65.8 c -1.4,6.6 -0.5,12.1 6.5,12.1 6.9,0 9,-5.2 10.5,-12.2 l 14,-65.7 h 8.9 l -13.8,64.9 c -3,13.2 -7,20.9 -20.5,20.9 z m 58.5,-1 c -0.8,-19 -2.9,-63.1 -2.9,-69.3 h -0.1 c -1.7,10.8 -4.1,23.8 -7.4,39.1 l -6.4,30.3 h -8.6 l 18,-84.8 h 10.7 c 0.9,21.9 2.9,63.1 2.8,67.7 h 0.2 c 2.1,-11.7 4.3,-24 7.2,-37.8 l 6.3,-29.9 h 8.5 l -18,84.8 h -10.3 z m 74.4,-55.7 -6.2,29.1 c -3.9,18.5 -7.9,26.6 -25.4,26.6 h -15.2 l 18,-84.8 h 13.1 c 17.4,0 19.4,12.1 15.7,29.1 z"
           class="st21"
           id="path101" />
        <path
           d="m 1110.3,538.6 h -4.6 l -14.9,69.8 h 4.9 c 9.5,0 13.1,-3.6 16.2,-18.2 l 6.9,-32.3 c 3,-13.4 1.5,-19.3 -8.5,-19.3 z"
           class="st21"
           id="path103" />
      </g>
    </g>
  </g>
</svg>
